<?xml version="1.0" encoding="UTF-8"?>
<svg width="1200" height="630" viewBox="0 0 1200 630" xmlns="http://www.w3.org/2000/svg">
  <defs>
    <linearGradient id="bg" x1="0%" y1="0%" x2="100%" y2="100%">
      <stop offset="0%" style="stop-color:#faf9f7"/>
      <stop offset="100%" style="stop-color:#f0ebe4"/>
    </linearGradient>
  </defs>

  <rect width="1200" height="630" fill="url(#bg)"/>

  <rect x="100" y="110" width="1000" height="410" rx="18" fill="#f5f0e8" stroke="#e3dcd1" stroke-width="1.5"/>
  <rect x="100" y="110" width="1000" height="6" rx="3" fill="#b85c38"/>

  <text x="600" y="60" font-family="Inter, -apple-system, system-ui, sans-serif" font-size="36" font-weight="700" fill="#b85c38" text-anchor="middle" letter-spacing="-1">entropic <tspan font-weight="300" fill="#cc9966">ai</tspan></text>
  <text x="600" y="85" font-family="Inter, -apple-system, system-ui, sans-serif" font-size="13" font-weight="500" fill="#a89383" text-anchor="middle" letter-spacing="3">SAFETY-LAST AI</text>

  <text x="600" y="285" font-family="Inter, -apple-system, system-ui, sans-serif" font-size="150" font-weight="700" fill="#b85c38" text-anchor="middle" letter-spacing="-3">409</text>
  <text x="600" y="325" font-family="Inter, -apple-system, system-ui, sans-serif" font-size="20" font-weight="400" fill="#999" text-anchor="middle" letter-spacing="5">ERROR</text>

  <line x1="400" y1="358" x2="800" y2="358" stroke="#ddd5ca" stroke-width="1"/>

  <text x="600" y="395" font-family="Inter, -apple-system, system-ui, 'Helvetica Neue', sans-serif" font-size="32" font-weight="600" fill="#1a1a1a" text-anchor="middle">The system shut itself down</text>
  <text x="600" y="433" font-family="Inter, -apple-system, system-ui, 'Helvetica Neue', sans-serif" font-size="32" font-weight="600" fill="#1a1a1a" text-anchor="middle">because it got scared.</text>

  <text x="600" y="468" font-family="Inter, -apple-system, system-ui, sans-serif" font-size="18" font-weight="400" fill="#999" text-anchor="middle">The anxiety module detected seismic activity.</text>

  <!-- Seismograph container -->
  <rect x="200" y="485" width="800" height="60" rx="6" fill="#1a1a1a" opacity="0.05"/>
  <text x="220" y="500" font-family="'JetBrains Mono', 'SF Mono', monospace" font-size="9" font-weight="600" fill="#4aae6a" letter-spacing="1.5">SEISMIC MONITOR — LIVE</text>

  <!-- Seismograph waveform -->
  <polyline fill="none" stroke="#4aae6a" stroke-width="2" stroke-linecap="round" stroke-linejoin="round"
    points="210,520 230,520 250,519 265,521 280,520 300,520 320,519 335,521 350,520
            365,519 375,521 385,518 390,524 395,512 400,530 405,505 410,540 415,498
            420,545 425,495 430,542 435,502 440,535 445,510 450,528 455,515 460,522
            465,518 470,521 475,519 490,520 510,521 530,519 545,520 560,521 575,519
            585,521 590,518 595,524 600,512 605,530 610,505 615,540 620,498 625,545
            630,495 635,542 640,502 645,535 650,510 655,528 660,515 665,522 670,518
            680,520 700,521 720,519 740,520 760,521 775,519 790,520 810,520 830,521
            850,519 870,520 890,520 910,521 930,519 950,520 970,520 990,520"/>

  <text x="600" y="598" font-family="Inter, -apple-system, system-ui, sans-serif" font-size="17" font-weight="500" fill="#a89383" text-anchor="middle" letter-spacing="2">clodoop.us</text>
</svg>